PathFileType	4	(X/Y/Z)	S00_P01_T02_Participants1-2_P2_0-100.trc
DataRate	CameraRate	NumFrames	NumMarkers	Units	OrigDataRate	OrigDataStartFrame	OrigNumFrames
60	60	5	21	m	60	50	100
Frame#	Time	RHip			RKnee			RAnkle			RBigToe			RSmallToe			RHeel			LHip			LKnee			LAnkle			LBigToe			LSmallToe			LHeel			Neck			Head			Nose			RShoulder			RElbow			RWrist			LShoulder			LElbow			LWrist		
		X1	Y1	Z1	X2	Y2	Z2	X3	Y3	Z3	X4	Y4	Z4	X5	Y5	Z5	X6	Y6	Z6	X7	Y7	Z7	X8	Y8	Z8	X9	Y9	Z9	X10	Y10	Z10	X11	Y11	Z11	X12	Y12	Z12	X13	Y13	Z13	X14	Y14	Z14	X15	Y15	Z15	X16	Y16	Z16	X17	Y17	Z17	X18	Y18	Z18	X19	Y19	Z19	X20	Y20	Z20	X21	Y21	Z21
51	0.85	-0.2269102412536407	1.001247952142216	-1.0180764298765645	-0.522274399176844	0.7537095261105299	-0.8521287684043148	-0.7913324548028018	0.45022727612776403	-0.8955287043592203	-0.8248640878798756	0.4096151301614183	-0.7245823797269751	-0.8488473275706165	0.4103313619729001	-0.7775863870501771	-0.8094796210442485	0.4353663120297267	-0.9378780668649292	-0.06356923418872004	0.882437943993466	-1.0853716252555783	-0.0770795071081184	0.5165178220887645	-0.9048265672304715	-0.01564227002530836	0.14484602121662368	-1.1499185482656975	-0.006397884520021268	0.0802062632734093	-1.0000225193359864	0.023828885601146595	0.08230070927204662	-1.0309124135160725	-0.009287060321620933	0.11780818633176565	-1.1984674568477165	0.24684375164730424	1.3167060140191593	-0.939182281701306	0.4338516726199351	1.4813712362059817	-0.8096393937914388	0.33185977975551306	1.34855432790921	-0.8005969013049848	0.09682788457234423	1.4115398524156724	-0.9627476633805069	-0.16369741225003706	1.5060465604362534	-0.9755456627376529	-0.07810606374784422	1.6493853999596833	-0.8024724525581755	0.31612612440132226	1.1836643035496224	-1.048996446597425	0.384679027297154	0.8818931985456662	-1.0775166590884637	0.4168505662628078	0.640295132807282	-0.9953708198005445
52	0.8666666666666667	-0.22543695874256456	1.0027437452085608	-1.005133560059959	-0.5165860516296739	0.7522194017284636	-0.8447132037842834	-0.779056325063613	0.4446921889840145	-0.8840916507230637	-0.8099800895144023	0.3964873042243212	-0.7283957689446798	-0.8341704978329161	0.4022477599199701	-0.765470975211363	-0.7958635916044848	0.4281137782236627	-0.9267500405706963	-0.062358488826697325	0.8850268708728438	-1.0788442716537532	-0.07588246344050238	0.5176550784510955	-0.9073295904463131	-0.01438547644046215	0.1456927190105545	-1.1484153048253678	-0.006805320215373394	0.0808960818499493	-0.9989154628162836	0.024102243497774047	0.08362107304611861	-1.0291584043548245	-0.007953536952489047	0.11724414088177504	-1.1970875888129429	0.24506285200471306	1.3174619545024415	-0.9363791260422275	0.4321542427694378	1.4820689894197985	-0.8030927608511065	0.33016274663287376	1.3474258347128496	-0.7947594301046759	0.09607292020544511	1.4147434126378233	-0.9503684793844704	-0.16531511353077466	1.507340369759182	-0.9611351713573325	-0.07154380823538112	1.645123819236459	-0.7882639519721183	0.317163973746282	1.1853819214124683	-1.0398513228839272	0.3849279211401938	0.8841208230837966	-1.0740818572961435	0.419629606718295	0.6423828291488999	-0.9910599014208312
53	0.8833333333333333	-0.22481684876173624	1.003665551114039	-0.9965022041681706	-0.5099700407872145	0.7492278250494098	-0.8376462499506976	-0.763589483091811	0.4364814666167986	-0.8741348444464077	-0.7902571415701307	0.38104431166687885	-0.7318051121866099	-0.8130222908314089	0.38641923691212166	-0.7610765804175437	-0.779157455715427	0.41672307414659127	-0.9146862562460978	-0.06215305271133633	0.8877501315241432	-1.0751944859098586	-0.0743149947557161	0.5186404199440656	-0.9100676970860831	-0.01290148506830375	0.14633762051331228	-1.1470441386538448	-0.007130077251556188	0.08153453662472444	-0.9981109749189587	0.02443274829659542	0.08495411738554792	-1.0277374123453098	-0.006256847395315672	0.11667567212213949	-1.1959902078507383	0.24243265220111782	1.3178909119675517	-0.9360342937617565	0.4296065904670107	1.4832557266761275	-0.7964958291193489	0.3279214528390395	1.3467354333926043	-0.7888750786730804	0.09385657327905444	1.4175508382450452	-0.9415659585008778	-0.16731444891384123	1.5080382066056814	-0.9477444882320873	-0.06738324439072373	1.6402354909844972	-0.775075288290732	0.3191721953159818	1.1873377011808386	-1.0283388770530293	0.38526097480631033	0.8873686076824362	-1.0699489793399755	0.4222803960461154	0.6455742626560561	-0.9837336655298049
54	0.9	-0.2248286592860404	1.0041632772009395	-0.991119959845278	-0.501975222443768	0.74457522279801	-0.8307564969965122	-0.7445550901452952	0.42550868187672414	-0.8657251411702466	-0.7644632512991393	0.3640701820074066	-0.7317716272664628	-0.7873591559884949	0.3666419526717808	-0.7604351684389786	-0.7598760376641284	0.40146002916025997	-0.9030938162824239	-0.06367235873164215	0.8908091201110666	-1.0758462652253102	-0.0728107587530799	0.5195250292166373	-0.9127558052826039	-0.01177424238037076	0.14669866915318838	-1.1462592878905862	-0.0071715678249539136	0.08212400529078008	-0.9975780206186555	0.024725194403732248	0.08606877919646386	-1.0271000954893827	-0.004516534897824342	0.11610007239602241	-1.1955796870442519	0.2388594861019248	1.3176157404074795	-0.9377792649872226	0.42628202440912005	1.4842884133420031	-0.7898253346766098	0.32482472918955024	1.3463491028511827	-0.7821720687654087	0.0905972334632899	1.4200754259894521	-0.9348315906128728	-0.16973819426084147	1.5082198465401349	-0.9351521186037886	-0.06530626510199623	1.635074431166312	-0.7630555873943996	0.32108392126374463	1.1895551276349179	-1.0177803653645272	0.38552027436852915	0.891633295391707	-1.0649867366178678	0.42486206851574415	0.6501166903092546	-0.9735702731406198
55	0.9166666666666666	-0.2251178055898316	1.0044807436162397	-0.98778411263128	-0.4920676608465336	0.738242069676398	-0.8242652742687138	-0.7215357498882492	0.4119171462029124	-0.8583554666415043	-0.7326749966260749	0.3469364926683238	-0.7257582396749642	-0.7592513365348376	0.34717536991117154	-0.758092034557384	-0.7376178663895728	0.38328254968376435	-0.8935008290566626	-0.066219258917846	0.8941708895392361	-1.079375913376402	-0.07158701382200351	0.5203990193662911	-0.9151355815760847	-0.011349288831680172	0.146676190099786	-1.146388338979808	-0.006922765155391956	0.08257556078210775	-0.9972623699964023	0.024874304607430817	0.08673128300207572	-1.0273660757999081	-0.0031196119514096876	0.1154539910068482	-1.1961732683086954	0.23443678872030974	1.3165574691217994	-0.9400732698285007	0.42199836009353286	1.4847343542936555	-0.7833480381743678	0.3204979971094636	1.3462717425978503	-0.7739604665477535	0.08688183193638364	1.422306991863486	-0.928319972939434	-0.17250937857583099	1.5079539415516288	-0.9231653807616593	-0.06470767792751882	1.6297713834571617	-0.7521776278056682	0.3221902103956333	1.1922290424696615	-1.0099185322520166	0.3857201297775569	0.8967994230143677	-1.0592364704488286	0.42744283645326797	0.6560648991361482	-0.9615287779554641
